Coordinates
version=1
nRows=9
nColumns=24
inDegrees=yes

Units are S.I. units (second, meters, Newtons, ...)
Angles are in degrees.

endheader
time	pelvis_tilt	pelvis_list	pelvis_rotation	pelvis_tx	pelvis_ty	pelvis_tz	hip_flexion_r	hip_adduction_r	hip_rotation_r	knee_angle_r	ankle_angle_r	subtalar_angle_r	mtp_angle_r	hip_flexion_l	hip_adduction_l	hip_rotation_l	knee_angle_l	ankle_angle_l	subtalar_angle_l	mtp_angle_l	lumbar_extension	lumbar_bending	lumbar_rotation
      4.18500000	    -17.22370349	     -5.68642007	      5.69223146	     -1.80961377	     -0.04103785	     -0.36297958	     45.03650377	      1.08088516	    -14.86986121	    -16.06110391	     -1.50099028	     -5.82349338	     15.93947440	     -1.10247659	     -5.54466343	     -4.52134024	    -19.74280088	      3.25031455	      9.98957171	     10.28437571	     21.02565239	      2.05688055	    -21.91416146
      4.19000000	    -17.21364261	     -5.99710115	      5.69902990	     -1.80097418	     -0.04226113	     -0.36284774	     45.08376723	      1.36909662	    -14.71789640	    -16.86970234	     -2.28434925	     -6.80548413	     15.89984866	     -1.20998675	     -6.01513177	     -4.48754408	    -20.49831745	      2.54894700	     10.12726675	     10.29594929	     21.23105796	      2.41456586	    -21.94287563
      4.19500000	    -17.23623818	     -6.29449661	      5.63662712	     -1.79235272	     -0.04352233	     -0.36255577	     45.19066191	      1.71685074	    -14.43481306	    -17.71837918	     -3.17824683	     -7.98757676	     15.80713047	     -1.25065867	     -6.48791421	     -4.60695717	    -21.30620377	      1.75085160	     10.28745783	     10.52000264	     21.45736938	      2.77131674	    -21.89209819
      4.20000000	    -17.27450718	     -6.56085520	      5.51686761	     -1.78373716	     -0.04479056	     -0.36209105	     45.34263356	      2.10533753	    -14.01074459	    -18.62423066	     -4.09643116	     -9.32274408	     15.61880988	     -1.24654123	     -6.95613447	     -4.91343095	    -22.14607762	      0.79695700	     10.48554441	     11.11665305	     21.68594207	      3.10238563	    -21.82611819
      4.20500000	    -17.34267606	     -6.88590076	      5.30192494	     -1.77503569	     -0.04607344	     -0.36157024	     45.55690271	      2.60446095	    -13.60477620	    -19.60186542	     -4.99447176	    -10.57054921	     15.09928037	     -1.22065623	     -7.48235021	     -5.28009451	    -22.93655458	     -0.37326905	     10.43931800	     12.51380962	     21.95630472	      3.53901276	    -21.61739895
      4.21000000	    -17.38831592	     -7.22119089	      5.21304917	     -1.76652059	     -0.04726235	     -0.36118411	     45.77893709	      3.03498782	    -13.21421428	    -20.66557871	     -5.76624123	    -11.81219682	     14.10671906	     -1.11170396	     -8.00750837	     -5.41226632	    -23.82402177	     -1.65169972	     10.22026490	     13.93669308	     22.17694052	      3.93495484	    -21.60008097
      4.21500000	    -17.49877127	     -7.55209571	      5.07120939	     -1.75802360	     -0.04850752	     -0.36067122	     46.09157420	      3.51296063	    -12.72719697	    -21.75519447	     -6.47822281	    -13.23384395	     13.51502402	     -0.86046903	     -8.54394083	     -5.65449020	    -24.89784825	     -2.86990765	     10.22740796	     14.40047085	     22.45720635	      4.32894845	    -21.55056363
      4.22000000	    -17.63057791	     -7.91125790	      4.79259984	     -1.74937161	     -0.04974997	     -0.36000994	     46.45729870	      4.11675000	    -12.18072612	    -22.97634431	     -6.92140458	    -14.29208670	     11.76642485	     -0.63188403	     -9.12562757	     -6.06097086	    -25.85458393	     -4.43056571	      9.98775232	     16.09563075	     22.77129303	      4.80733692	    -21.35781445
      4.22500000	    -17.72267234	     -8.26357171	      4.60846132	     -1.74093551	     -0.05091377	     -0.35942903	     46.79866781	      4.66315781	    -11.67096549	    -24.23533706	     -7.19316132	    -15.37201899	     10.08755642	     -0.32309896	     -9.69816066	     -6.30182962	    -26.96961071	     -6.02585804	      9.70467445	     17.36849209	     23.00840362	      5.23930074	    -21.28384248
